<svg width="240" height="46" viewBox="0 0 240 46" fill="none" xmlns="http://www.w3.org/2000/svg">
<g filter="url(#filter0_d)">
<path d="M19.5459 24.1953C19.9072 24.0195 20.4102 23.8047 21.0547 23.5508C21.709 23.2871 22.124 23.1553 22.2998 23.1553C22.4268 23.1553 22.4902 23.2236 22.4902 23.3604C22.4902 23.4971 22.4561 23.6387 22.3877 23.7852C22.3193 23.9316 22.2461 24.0586 22.168 24.166C22.0996 24.2734 22.0068 24.4053 21.8896 24.5615L21.6699 24.8545C21.2012 25.5186 20.5273 26.0703 19.6484 26.5098C19.3457 26.666 18.9062 26.8711 18.3301 27.125C17.7637 27.3789 17.3682 27.5645 17.1436 27.6816L16.3672 28.8535C14.7168 31.2949 13.335 33.126 12.2217 34.3467C11.1182 35.5674 10.0928 36.4512 9.14551 36.998C8.20801 37.5449 7.11426 37.8184 5.86426 37.8184C5.25879 37.8184 4.7998 37.5547 4.4873 37.0273C4.18457 36.5098 4.0332 35.9238 4.0332 35.2695C4.0332 34.625 4.2334 33.9561 4.63379 33.2627C5.04395 32.5693 5.60547 31.9053 6.31836 31.2705C7.03125 30.6455 7.77832 30.0498 8.55957 29.4834C9.34082 28.9268 10.2051 28.3848 11.1523 27.8574C12.6855 27.0273 14.1748 26.2803 15.6201 25.6162C19.1748 20.3818 22.7832 15.3086 26.4453 10.3965C26.5234 10.3184 26.5625 10.2598 26.5625 10.2207C26.5625 10.1816 26.416 10.1621 26.123 10.1621C25.8301 10.1621 25.1758 10.2598 24.1602 10.4551C21.9434 10.9043 19.7412 11.7197 17.5537 12.9014C15.3662 14.0732 13.4912 15.4209 11.9287 16.9443C10.3662 18.458 9.58496 19.6885 9.58496 20.6357C9.58496 21.1143 9.79004 21.5098 10.2002 21.8223C10.6104 22.125 11.0498 22.2764 11.5186 22.2764C11.9971 22.2764 12.4854 22.1592 12.9834 21.9248C13.4912 21.6807 13.9111 21.4414 14.2432 21.207C14.5752 20.9629 14.7656 20.8408 14.8145 20.8408C14.8633 20.8408 14.8877 20.9092 14.8877 21.0459C14.8877 21.7588 14.6973 22.374 14.3164 22.8916C13.9453 23.3994 13.4277 23.7803 12.7637 24.0342C12.0996 24.2881 11.46 24.415 10.8447 24.415C10.2393 24.415 9.61914 24.2881 8.98438 24.0342C8.34961 23.7803 7.80762 23.3848 7.3584 22.8477C6.91895 22.3105 6.69922 21.7002 6.69922 21.0166C6.69922 20.7236 6.7627 20.377 6.88965 19.9766C7.85645 16.832 11.0156 13.7998 16.3672 10.8799C18.2031 9.88379 20.2539 9.08301 22.5195 8.47754C24.7949 7.8623 26.9434 7.55469 28.9648 7.55469C29.3359 7.55469 29.6582 7.67188 29.9316 7.90625C30.2051 8.14062 30.3418 8.38965 30.3418 8.65332C30.3418 8.91699 30.3223 9.10254 30.2832 9.20996C30.2441 9.31738 30.0684 9.5957 29.7559 10.0449C29.4434 10.4941 29.126 10.9287 28.8037 11.3486C27.915 12.501 27.1582 13.4922 26.5332 14.3223C25.9082 15.1523 23.5791 18.4434 19.5459 24.1953ZM13.335 29.0879C8.53027 32.0664 6.12793 34.0586 6.12793 35.0645C6.12793 35.2793 6.29395 35.3867 6.62598 35.3867C6.96777 35.3867 7.41211 35.2158 7.95898 34.874C8.50586 34.5322 9.01855 34.1318 9.49707 33.6729C9.98535 33.2139 10.5029 32.6621 11.0498 32.0176C11.8408 31.0801 12.6025 30.1035 13.335 29.0879ZM43.1357 17.8379C43.4287 17.8379 43.7266 17.9697 44.0293 18.2334C44.3418 18.4971 44.498 18.9023 44.498 19.4492C44.498 19.9863 44.3076 20.6895 43.9268 21.5586C43.5459 22.418 43.0234 23.2969 42.3594 24.1953C41.6953 25.084 40.9629 25.9238 40.1621 26.7148C39.3711 27.4961 38.5117 28.1406 37.584 28.6484C36.666 29.1465 35.8311 29.3955 35.0791 29.3955C34.3271 29.3955 33.7217 29.1611 33.2627 28.6924C32.8135 28.2139 32.5889 27.5547 32.5889 26.7148C32.5889 25.8652 32.7939 24.9277 33.2041 23.9023C33.624 22.877 34.1611 21.9736 34.8154 21.1924C35.4697 20.4014 36.1777 19.6934 36.9395 19.0684C38.5312 17.7891 39.9277 17.1494 41.1289 17.1494C41.666 17.1494 42.0713 17.2812 42.3447 17.5449C42.4424 17.6328 42.4912 17.7109 42.4912 17.7793V17.8672C42.6279 17.8477 42.8428 17.8379 43.1357 17.8379ZM41.6562 19.7861H41.5537C41.2119 19.7861 41.041 19.5371 41.041 19.0391C40.3281 19.2734 39.5811 19.6836 38.7998 20.2695C38.0186 20.8555 37.3203 21.5488 36.7051 22.3496C35.4551 23.9512 34.8203 25.3037 34.8008 26.4072C34.8008 26.9541 35.001 27.2275 35.4014 27.2275C35.8018 27.2275 36.3975 26.9639 37.1885 26.4365C37.9795 25.9092 38.7607 25.1572 39.5322 24.1807C40.3135 23.2041 40.8945 22.3594 41.2754 21.6465C41.666 20.9238 41.8613 20.4355 41.8613 20.1816C41.8613 19.918 41.793 19.7861 41.6562 19.7861ZM66.0664 24.6787C66.1348 25.1279 66.1689 25.4844 66.1689 25.748C66.1689 26.002 66.1201 26.2266 66.0225 26.4219C65.9346 26.6074 65.7295 26.876 65.4072 27.2275C65.0947 27.5693 64.7188 27.916 64.2793 28.2676C63.2051 29.1172 62.1064 29.542 60.9834 29.542C59.3721 29.542 58.5664 28.8291 58.5664 27.4033C58.5664 26.1631 59.6455 23.6924 61.8037 19.9912C61.8818 19.8545 61.9355 19.7568 61.9648 19.6982C61.2129 20.2256 59.7725 21.666 57.6436 24.0195C55.5244 26.3633 54.1133 28.0234 53.4102 29C53.3516 29.0879 53.2051 29.1855 52.9707 29.293C52.7363 29.4004 52.5508 29.4541 52.4141 29.4541C52.2871 29.4541 52.1504 29.4102 52.0039 29.3223C51.8477 29.2441 51.75 29.2051 51.7109 29.2051C51.584 29.2051 51.5205 29.1611 51.5205 29.0732C51.5205 28.9951 51.6963 28.5508 52.0479 27.7402C52.3896 26.9199 52.8438 25.9043 53.4102 24.6934C54.9629 21.3535 57.2725 17.0078 60.3389 11.6562C61.4131 9.78125 62.2529 8.45312 62.8584 7.67188C63.2881 7.11523 64.0107 6.83691 65.0264 6.83691C65.2412 6.83691 65.3633 6.90039 65.3926 7.02734C65.4219 7.1543 65.4365 7.29102 65.4365 7.4375C65.4365 7.58398 65.4072 7.73047 65.3486 7.87695L63.7812 10.3232C60.6758 15.167 58.3369 19.1807 56.7646 22.3643C58.2881 20.5088 59.7676 19.0781 61.2031 18.0723C62.0918 17.4375 62.7559 17.1201 63.1953 17.1201C63.6445 17.1201 64.0498 17.1934 64.4111 17.3398C64.7725 17.4766 64.9531 17.8135 64.9531 18.3506C64.9531 18.5459 64.6357 19.2686 64.001 20.5186C62.0967 24.2686 61.1445 26.3535 61.1445 26.7734C61.1445 27.1836 61.3154 27.3887 61.6572 27.3887C62.1553 27.3887 62.9219 26.9053 63.957 25.9385C64.7383 25.2061 65.2314 24.7373 65.4365 24.5322C65.5537 24.4443 65.6611 24.4004 65.7588 24.4004C65.9443 24.4004 66.0469 24.4932 66.0664 24.6787ZM81.6289 26.7441C81.6289 27.1738 81.9219 27.3887 82.5078 27.3887C82.8203 27.3887 83.2109 27.2324 83.6797 26.9199C84.1582 26.6074 84.5879 26.2656 84.9688 25.8945C85.9844 24.8887 86.5605 24.3857 86.6973 24.3857C86.9512 24.3857 87.0781 24.752 87.0781 25.4844C87.0781 26.2168 86.8486 26.7197 86.3896 26.9932C84.9932 28.2529 83.9141 29.0195 83.1523 29.293C82.7227 29.4395 82.249 29.5078 81.7314 29.498C81.2139 29.4883 80.7012 29.2637 80.1934 28.8242C79.6855 28.3848 79.4316 27.8525 79.4316 27.2275C79.4316 26.5928 79.5977 25.875 79.9297 25.0742C80.2617 24.2734 80.5986 23.5898 80.9404 23.0234C81.292 22.4473 81.7217 21.7832 82.2295 21.0312C82.7373 20.2695 83.0059 19.7959 83.0352 19.6104L83.0059 19.5811C82.6836 19.6104 81.8828 20.2451 80.6035 21.4854C79.334 22.7256 78.2842 23.8047 77.4541 24.7227C76.624 25.6406 75.6328 26.8662 74.4805 28.3994C74.1582 28.8193 73.8945 29.0293 73.6895 29.0293C73.4844 29.0293 73.2109 28.9658 72.8691 28.8389C72.5176 28.7021 72.3027 28.6045 72.2246 28.5459C72.1465 28.4873 72.1074 28.3994 72.1074 28.2822C72.1074 28.165 72.1416 28.0234 72.21 27.8574C72.2783 27.6816 72.3467 27.54 72.415 27.4326C72.4736 27.3154 72.5762 27.1396 72.7227 26.9053C72.8691 26.6709 73.1572 26.1777 73.5869 25.4258C74.0264 24.6641 74.6953 23.5312 75.5938 22.0273C76.4922 20.5234 77.0293 19.6152 77.2051 19.3027C77.5762 18.6582 77.8789 18.1895 78.1133 17.8965C78.5527 17.3398 79.2949 17.0615 80.3398 17.0615C80.5742 17.0615 80.6914 17.208 80.6914 17.501C80.6914 17.96 80.2666 18.8242 79.417 20.0938L78.8018 21.0166C80.4912 19.1416 81.917 17.9551 83.0791 17.457C83.6455 17.2129 84.1533 17.0908 84.6025 17.0908C85.0615 17.0908 85.4229 17.2129 85.6865 17.457C85.96 17.7012 86.0967 17.9746 86.0967 18.2773C86.0967 18.5703 85.9941 18.9268 85.7891 19.3467C85.584 19.7568 85.374 20.1279 85.1592 20.46C84.9541 20.7822 84.6807 21.1924 84.3389 21.6904C83.9971 22.1885 83.8115 22.4619 83.7822 22.5107C83.7529 22.5498 83.6748 22.667 83.5479 22.8623C83.4307 23.0479 83.3428 23.1846 83.2842 23.2725C83.2256 23.3604 83.1279 23.5166 82.9912 23.7412C82.8545 23.9561 82.7422 24.1367 82.6543 24.2832C82.5762 24.4297 82.4736 24.6104 82.3467 24.8252C82.2295 25.04 82.1318 25.2256 82.0537 25.3818C81.9854 25.5381 81.9121 25.709 81.834 25.8945C81.6973 26.2363 81.6289 26.5195 81.6289 26.7441Z" fill="#222222"/>
<path d="M113.032 24.9717L112.842 25.3672C112.842 25.6504 113.237 25.9238 114.028 26.1875C114.829 26.4414 115.703 26.5684 116.65 26.5684C117.607 26.5684 118.657 26.4268 119.8 26.1436C120.942 25.8604 121.934 25.5137 122.773 25.1035C123.623 24.6934 124.321 24.2637 124.868 23.8145C125.425 23.3652 125.703 22.9746 125.703 22.6426C125.703 22.2227 125.215 21.832 124.238 21.4707C123.262 21.1094 121.841 20.7139 119.976 20.2842C118.12 19.8447 116.758 19.293 115.889 18.6289C115.029 17.9648 114.6 17.1592 114.6 16.2119C114.6 15.2549 114.941 14.3418 115.625 13.4727C116.309 12.6035 117.197 11.832 118.291 11.1582C119.395 10.4844 120.596 9.88379 121.895 9.35645C124.58 8.27246 127.07 7.73047 129.365 7.73047C130.244 7.73047 131.021 7.80859 131.694 7.96484C132.983 8.26758 133.628 8.66797 133.628 9.16602C133.628 9.66406 133.584 10.0059 133.496 10.1914C133.408 10.3672 133.335 10.4844 133.276 10.543C133.228 10.6016 133.159 10.6602 133.071 10.7188C132.993 10.7773 132.935 10.8213 132.896 10.8506C132.466 11.2119 131.289 11.4365 129.365 11.5244C128.701 11.5537 128.34 11.5879 128.281 11.627C128.223 11.666 128.169 11.6855 128.12 11.6855C128.081 11.6855 128.032 11.6465 127.974 11.5684C127.915 11.4902 127.886 11.3633 127.886 11.1875C127.886 11.0117 128.076 10.6895 128.457 10.2207C127.266 10.2891 125.991 10.5625 124.634 11.041C123.286 11.5195 122.114 12.0615 121.118 12.667C120.122 13.2627 119.292 13.8535 118.628 14.4395C117.964 15.0156 117.632 15.4258 117.632 15.6699C117.632 15.9043 117.705 16.0996 117.852 16.2559C118.262 16.6953 119.399 17.1543 121.265 17.6328C123.198 18.1309 124.487 18.5312 125.132 18.834C125.776 19.1367 126.309 19.4248 126.729 19.6982C127.158 19.9717 127.5 20.25 127.754 20.5332C128.35 21.2168 128.647 21.9102 128.647 22.6133C128.647 23.3164 128.457 23.9756 128.076 24.5908C127.705 25.2061 127.139 25.8018 126.377 26.3779C125.625 26.9541 124.736 27.4668 123.711 27.916C121.465 28.9219 118.789 29.4248 115.684 29.4248C113.418 29.4248 111.973 28.8242 111.348 27.623C111.182 27.3203 111.099 27.0078 111.099 26.6855C111.099 26.3535 111.172 26.0557 111.318 25.792C111.475 25.5283 111.66 25.3281 111.875 25.1914C112.295 24.9277 112.593 24.7959 112.769 24.7959C112.944 24.7959 113.032 24.8545 113.032 24.9717ZM139.01 29.0879L138.292 29.0586H138.028C137.931 29.0293 137.828 28.9707 137.721 28.8828C137.604 28.7949 137.516 28.7314 137.457 28.6924C137.398 28.6533 137.369 28.585 137.369 28.4873C137.369 28.3799 137.408 28.1992 137.486 27.9453C139.391 23.7559 141.231 20.4062 143.009 17.8965C143.204 17.623 143.517 17.418 143.946 17.2812C144.386 17.1348 144.811 17.0615 145.221 17.0615C145.465 17.0615 145.587 17.252 145.587 17.6328C145.587 17.7402 145.548 17.8867 145.47 18.0723C145.392 18.248 145.196 18.541 144.884 18.9512C144.571 19.3613 144.2 19.8301 143.771 20.3574C143.341 20.8848 143.097 21.1875 143.038 21.2656C144.376 19.8789 145.582 18.8486 146.656 18.1748C147.74 17.4912 148.521 17.1494 149 17.1494C149.488 17.1494 149.859 17.291 150.113 17.5742C150.377 17.8477 150.509 18.1455 150.509 18.4678C150.509 18.7803 150.484 19.0439 150.436 19.2588C150.396 19.4639 150.318 19.6836 150.201 19.918C150.084 20.1426 149.981 20.3379 149.894 20.5039C149.815 20.6602 149.679 20.8701 149.483 21.1338C149.288 21.3877 149.151 21.5635 149.073 21.6611C149.005 21.7588 148.854 21.9443 148.619 22.2178C148.395 22.4912 148.272 22.6426 148.253 22.6719C148.526 22.3984 148.907 21.9932 149.396 21.4561C149.884 20.9189 150.294 20.4697 150.626 20.1084C150.968 19.7471 151.393 19.3418 151.9 18.8926C152.408 18.4336 152.882 18.0625 153.321 17.7793C154.376 17.1152 155.445 16.7832 156.529 16.7832C156.9 16.7832 157.213 16.9004 157.467 17.1348C157.721 17.3691 157.848 17.6523 157.848 17.9844C157.848 18.3066 157.452 19.0879 156.661 20.3281C155.87 21.5586 155.079 22.7988 154.288 24.0488C153.507 25.2891 153.116 26.0703 153.116 26.3926C153.116 26.8418 153.199 27.1104 153.365 27.1982C153.531 27.2764 153.731 27.3057 153.966 27.2861C154.2 27.2666 154.527 27.1152 154.947 26.832C155.377 26.5488 155.758 26.2559 156.09 25.9531C156.627 25.4648 157.125 24.9912 157.584 24.5322C157.682 24.4443 157.789 24.4004 157.906 24.4004C158.092 24.4004 158.204 24.542 158.243 24.8252C158.282 25.1084 158.302 25.4014 158.302 25.7041C158.302 26.0068 158.272 26.2168 158.214 26.334C157.931 26.8809 157.306 27.5498 156.339 28.3408C155.372 29.1318 154.444 29.5273 153.556 29.5273C153.448 29.5273 153.37 29.5225 153.321 29.5127C152.315 29.415 151.617 29.1416 151.227 28.6924C150.846 28.2334 150.655 27.6914 150.655 27.0664C150.655 26.4414 150.865 25.6846 151.285 24.7959C151.715 23.9072 152.184 23.1016 152.691 22.3789C153.199 21.6562 153.663 21.0068 154.083 20.4307C154.513 19.8447 154.728 19.5273 154.728 19.4785C154.728 19.4297 154.688 19.4053 154.61 19.4053C154.308 19.4053 153.634 19.8936 152.589 20.8701C150.802 22.54 149.259 24.1514 147.96 25.7041C147.618 26.1143 146.808 27.1543 145.528 28.8242C145.382 29.0195 145.147 29.1172 144.825 29.1172C144.513 29.1172 144.186 29.0586 143.844 28.9414C143.502 28.8145 143.331 28.6533 143.331 28.458C143.331 28.3604 144.107 26.9932 145.66 24.3564C147.213 21.71 147.989 20.2695 147.989 20.0352C147.989 19.791 147.843 19.6689 147.55 19.6689C147.267 19.6689 146.676 20.0986 145.777 20.958C143.307 23.3213 141.393 25.6699 140.035 28.0039C139.947 28.1406 139.776 28.3555 139.522 28.6484C139.269 28.9414 139.098 29.0879 139.01 29.0879ZM175.798 12.916C175.798 13.4727 175.539 14.0342 175.021 14.6006C174.504 15.1572 173.962 15.4355 173.396 15.4355C172.839 15.4355 172.561 15.1426 172.561 14.5566C172.561 13.9707 172.805 13.4141 173.293 12.8867C173.791 12.3496 174.338 12.0811 174.934 12.0811C175.197 12.0811 175.407 12.1543 175.563 12.3008C175.72 12.4473 175.798 12.6523 175.798 12.916ZM173.425 25.7041C173.425 25.9971 173.396 26.207 173.337 26.334C172.858 27.3105 172.097 28.1016 171.052 28.707C170.007 29.3027 169.099 29.6006 168.327 29.6006C167.556 29.6006 166.892 29.3418 166.335 28.8242C165.778 28.3066 165.5 27.7793 165.5 27.2422C165.5 26.7051 165.769 25.9238 166.306 24.8984C166.843 23.873 167.38 22.9258 167.917 22.0566C168.454 21.1875 168.723 20.7188 168.723 20.6504C168.723 20.5723 168.62 20.4258 168.415 20.2109C168.22 19.9961 168.122 19.8398 168.122 19.7422C168.122 19.6348 168.322 19.3662 168.723 18.9365C169.133 18.4971 169.626 18.0674 170.202 17.6475C170.788 17.2178 171.232 17.0029 171.535 17.0029C171.848 17.0029 172.126 17.1396 172.37 17.4131C172.614 17.6865 172.736 17.9355 172.736 18.1602C172.736 18.3848 171.574 20.499 169.25 24.5029C169.221 24.5615 169.138 24.6934 169.001 24.8984C168.874 25.0938 168.771 25.2598 168.693 25.3965C168.625 25.5234 168.542 25.6797 168.444 25.8652C168.249 26.2559 168.151 26.583 168.151 26.8467C168.151 27.1787 168.376 27.3447 168.825 27.3447C169.274 27.3447 169.738 27.1934 170.217 26.8906C170.705 26.5781 171.125 26.2363 171.477 25.8652C172.395 24.8789 172.917 24.3857 173.044 24.3857C173.298 24.3857 173.425 24.8252 173.425 25.7041ZM193.499 7.0127C193.968 7.0127 194.378 7.1543 194.729 7.4375C195.091 7.71094 195.271 8.12109 195.271 8.66797C195.271 9.21484 194.969 10.0742 194.363 11.2461C193.758 12.4082 193.03 13.5996 192.181 14.8203C191.331 16.0312 190.369 17.3203 189.295 18.6875C187.596 20.8555 185.965 22.8037 184.402 24.5322C184.393 24.6494 184.349 24.8691 184.271 25.1914C184.202 25.5039 184.168 25.8213 184.168 26.1436C184.168 26.4658 184.314 26.7588 184.607 27.0225C184.91 27.2764 185.281 27.4033 185.721 27.4033C186.16 27.4033 186.629 27.2471 187.127 26.9346C187.635 26.6221 188.074 26.2754 188.445 25.8945C189.422 24.8887 190.027 24.3857 190.262 24.3857C190.496 24.3857 190.613 24.7422 190.613 25.4551V25.748C190.613 26.1289 190.545 26.4072 190.408 26.583C189.588 27.5889 188.665 28.3408 187.64 28.8389C186.614 29.3271 185.643 29.5713 184.725 29.5713C183.807 29.5713 183.108 29.293 182.63 28.7363C182.151 28.1699 181.912 27.3984 181.912 26.4219C181.912 24.5176 182.42 22.2812 183.436 19.7129C184.461 17.1348 185.613 14.9424 186.893 13.1357C189.773 9.05371 191.976 7.0127 193.499 7.0127ZM192.84 9.44434C192.84 9.29785 192.791 9.22461 192.693 9.22461C192.352 9.22461 191.453 10.2012 189.998 12.1543C188.543 14.1074 187.488 15.665 186.834 16.8271C186.189 17.9893 185.579 19.4492 185.003 21.207C186.155 19.8398 187.747 17.7109 189.778 14.8203C191.819 11.9199 192.84 10.1279 192.84 9.44434ZM202.646 19.2734C203.593 18.6191 204.521 18.1162 205.429 17.7646C206.337 17.4131 207.123 17.2373 207.787 17.2373C208.451 17.2373 208.876 17.4277 209.062 17.8086C209.442 17.3691 209.916 17.1348 210.482 17.1055C210.648 17.0957 210.854 17.0908 211.098 17.0908C211.342 17.0908 211.493 17.125 211.552 17.1934C211.61 17.252 211.664 17.3691 211.713 17.5449C211.762 17.7207 211.791 17.8184 211.801 17.8379C211.811 17.8574 211.815 17.8916 211.815 17.9404C211.815 17.9795 211.791 18.0332 211.742 18.1016C211.693 18.1602 211.635 18.2188 211.566 18.2773C211.508 18.3359 211.474 18.3701 211.464 18.3799C209.306 21.4756 207.099 25.0059 204.843 28.9707C207.167 26.9102 209.247 25.4307 211.083 24.5322C211.2 24.4736 211.312 24.4443 211.42 24.4443C211.576 24.4443 211.679 24.5469 211.728 24.752C211.776 24.9473 211.801 25.2305 211.801 25.6016C211.801 25.9727 211.776 26.2021 211.728 26.29C211.688 26.3779 211.464 26.5537 211.054 26.8174C210.644 27.0811 210.111 27.4229 209.457 27.8428C208.803 28.2627 208.109 28.7266 207.377 29.2344C205.619 30.4551 204.174 31.7393 203.041 33.0869C201.576 34.8545 200.526 36.2803 199.892 37.3643C199.657 37.7842 199.262 37.9941 198.705 37.9941C197.602 37.9941 197.05 37.4717 197.05 36.4268C197.05 35.3623 197.572 34.2734 198.617 33.1602C199.398 32.3301 200.116 31.6514 200.771 31.124C201.425 30.5967 201.781 30.2988 201.84 30.2305C202.562 29.1465 203.544 27.6084 204.784 25.6162C203.729 26.7197 202.704 27.5986 201.708 28.2529C200.722 28.9072 199.984 29.2344 199.496 29.2344C198.002 29.2344 197.255 28.5947 197.255 27.3154C197.255 26.2998 197.514 25.2744 198.031 24.2393C198.549 23.2041 199.213 22.2812 200.023 21.4707C200.834 20.6504 201.708 19.918 202.646 19.2734ZM208.227 18.8926C207.094 19.1367 206.029 19.542 205.033 20.1084C204.037 20.665 203.217 21.2656 202.572 21.9102C201.928 22.5449 201.371 23.1992 200.902 23.873C200.023 25.1328 199.584 26.1094 199.584 26.8027C199.584 26.9688 199.623 27.0518 199.701 27.0518C199.789 27.0518 199.975 26.9639 200.258 26.7881C200.551 26.6123 200.961 26.3145 201.488 25.8945C202.016 25.4648 202.602 24.957 203.246 24.3711C204.74 22.9941 206.4 21.168 208.227 18.8926ZM230.835 17.8672C231.577 17.8672 231.948 18.1211 231.948 18.6289C231.948 18.9023 231.885 19.1025 231.758 19.2295C231.631 19.3564 231.357 19.7812 230.938 20.5039C230.527 21.2168 230.068 22.1348 229.561 23.2578C229.062 24.3711 228.74 25.3232 228.594 26.1143C228.564 26.2119 228.55 26.3486 228.55 26.5244C228.55 27.0615 228.696 27.3301 228.989 27.3301C229.282 27.3301 229.629 27.1934 230.029 26.9199C230.43 26.6367 230.786 26.3389 231.099 26.0264C231.411 25.7041 231.714 25.377 232.007 25.0449C232.31 24.7129 232.49 24.5225 232.549 24.4736C232.607 24.4248 232.695 24.4004 232.812 24.4004C232.998 24.4004 233.11 24.542 233.149 24.8252C233.188 25.1084 233.208 25.4014 233.208 25.7041C233.208 26.0068 233.179 26.2168 233.12 26.334C232.837 26.8906 232.212 27.5596 231.245 28.3408C230.288 29.1221 229.414 29.5127 228.623 29.5127C227.842 29.5127 227.266 29.2734 226.895 28.7949C226.523 28.3164 226.338 27.7891 226.338 27.2129C226.338 26.627 226.436 26.1143 226.631 25.6748C225.82 26.7295 224.888 27.623 223.833 28.3555C222.788 29.0879 221.934 29.4541 221.27 29.4541C220.605 29.4541 220.063 29.2539 219.644 28.8535C219.106 28.3555 218.838 27.667 218.838 26.7881C218.838 25.8994 219.033 25.0107 219.424 24.1221C219.824 23.2236 220.347 22.4082 220.991 21.6758C221.636 20.9336 222.344 20.2598 223.115 19.6543C224.736 18.3848 226.23 17.75 227.598 17.75C228.125 17.75 228.555 17.8379 228.887 18.0137C229.219 18.1895 229.429 18.4092 229.517 18.6729C229.751 18.3213 229.946 18.1016 230.103 18.0137C230.269 17.916 230.513 17.8672 230.835 17.8672ZM228.887 19.4932C227.217 19.4932 225.488 20.4209 223.701 22.2764C223.066 22.9404 222.48 23.7363 221.943 24.6641C221.416 25.5918 221.152 26.2266 221.152 26.5684C221.152 26.9102 221.25 27.0811 221.445 27.0811C221.719 27.0811 222.48 26.5439 223.73 25.4697C224.98 24.3857 225.811 23.5898 226.221 23.082C226.67 22.5156 227.559 21.3193 228.887 19.4932Z" fill="#2892D7"/>
</g>
<defs>
<filter id="filter0_d" x="0.0332031" y="6.83691" width="237.175" height="39.1572" filterUnits="userSpaceOnUse" color-interpolation-filters="sRGB">
<feFlood flood-opacity="0" result="BackgroundImageFix"/>
<feColorMatrix in="SourceAlpha" type="matrix" values="0 0 0 0 0 0 0 0 0 0 0 0 0 0 0 0 0 0 127 0"/>
<feOffset dy="4"/>
<feGaussianBlur stdDeviation="2"/>
<feColorMatrix type="matrix" values="0 0 0 0 0 0 0 0 0 0 0 0 0 0 0 0 0 0 0.25 0"/>
<feBlend mode="normal" in2="BackgroundImageFix" result="effect1_dropShadow"/>
<feBlend mode="normal" in="SourceGraphic" in2="effect1_dropShadow" result="shape"/>
</filter>
</defs>
</svg>
